<svg width="1280" height="832" viewBox="0 0 1280 832" fill="none" xmlns="http://www.w3.org/2000/svg">
<g id="Group 8">
<rect id="Rectangle 10" width="1280" height="832" fill="#1D1D1D"/>
<g id="Group 7" filter="url(#filter0_d_54_979)">
<path id="Green Fact" d="M205.32 312.344C200.008 312.344 195.08 311.512 190.536 309.848C185.992 308.12 182.056 305.688 178.728 302.552C175.464 299.416 172.904 295.736 171.048 291.512C169.192 287.224 168.264 282.52 168.264 277.4C168.264 272.28 169.192 267.608 171.048 263.384C172.904 259.096 175.496 255.384 178.824 252.248C182.152 249.112 186.088 246.712 190.632 245.048C195.24 243.32 200.264 242.456 205.704 242.456C212.04 242.456 217.704 243.512 222.696 245.624C227.688 247.736 231.816 250.776 235.08 254.744L222.984 265.688C220.68 263.192 218.184 261.336 215.496 260.12C212.872 258.84 209.928 258.2 206.664 258.2C203.784 258.2 201.16 258.648 198.792 259.544C196.424 260.44 194.408 261.752 192.744 263.48C191.08 265.144 189.768 267.16 188.808 269.528C187.912 271.832 187.464 274.456 187.464 277.4C187.464 280.216 187.912 282.808 188.808 285.176C189.768 287.544 191.08 289.592 192.744 291.32C194.408 292.984 196.392 294.296 198.696 295.256C201.064 296.152 203.656 296.6 206.472 296.6C209.288 296.6 212.04 296.152 214.728 295.256C217.416 294.296 220.136 292.696 222.888 290.456L233.544 303.8C229.704 306.552 225.256 308.664 220.2 310.136C215.144 311.608 210.184 312.344 205.32 312.344ZM216.744 301.304V275.96H233.544V303.8L216.744 301.304ZM244.731 311V258.968H262.107V274.136L259.515 269.816C261.051 265.912 263.547 263 267.003 261.08C270.459 259.096 274.651 258.104 279.579 258.104V274.52C278.747 274.392 278.011 274.328 277.371 274.328C276.795 274.264 276.155 274.232 275.451 274.232C271.739 274.232 268.731 275.256 266.427 277.304C264.123 279.288 262.971 282.552 262.971 287.096V311H244.731ZM313.901 311.864C307.757 311.864 302.381 310.712 297.773 308.408C293.229 306.04 289.677 302.84 287.117 298.808C284.621 294.712 283.373 290.072 283.373 284.888C283.373 279.704 284.589 275.096 287.021 271.064C289.517 266.968 292.941 263.8 297.293 261.56C301.645 259.256 306.541 258.104 311.981 258.104C317.101 258.104 321.773 259.16 325.997 261.272C330.221 263.32 333.581 266.36 336.077 270.392C338.573 274.424 339.821 279.32 339.821 285.08C339.821 285.72 339.789 286.456 339.725 287.288C339.661 288.12 339.597 288.888 339.533 289.592H298.349V279.992H329.837L322.925 282.68C322.989 280.312 322.541 278.264 321.581 276.536C320.685 274.808 319.405 273.464 317.741 272.504C316.141 271.544 314.253 271.064 312.077 271.064C309.901 271.064 307.981 271.544 306.317 272.504C304.717 273.464 303.469 274.84 302.573 276.632C301.677 278.36 301.229 280.408 301.229 282.776V285.56C301.229 288.12 301.741 290.328 302.765 292.184C303.853 294.04 305.389 295.48 307.373 296.504C309.357 297.464 311.725 297.944 314.477 297.944C317.037 297.944 319.213 297.592 321.005 296.888C322.861 296.12 324.685 294.968 326.477 293.432L336.077 303.416C333.581 306.168 330.509 308.28 326.861 309.752C323.213 311.16 318.893 311.864 313.901 311.864ZM375.495 311.864C369.351 311.864 363.975 310.712 359.367 308.408C354.823 306.04 351.271 302.84 348.711 298.808C346.215 294.712 344.967 290.072 344.967 284.888C344.967 279.704 346.183 275.096 348.615 271.064C351.111 266.968 354.535 263.8 358.887 261.56C363.239 259.256 368.135 258.104 373.575 258.104C378.695 258.104 383.367 259.16 387.591 261.272C391.815 263.32 395.175 266.36 397.671 270.392C400.167 274.424 401.415 279.32 401.415 285.08C401.415 285.72 401.383 286.456 401.319 287.288C401.255 288.12 401.191 288.888 401.127 289.592H359.943V279.992H391.431L384.519 282.68C384.583 280.312 384.135 278.264 383.175 276.536C382.279 274.808 380.999 273.464 379.335 272.504C377.735 271.544 375.847 271.064 373.671 271.064C371.495 271.064 369.575 271.544 367.911 272.504C366.311 273.464 365.063 274.84 364.167 276.632C363.271 278.36 362.823 280.408 362.823 282.776V285.56C362.823 288.12 363.335 290.328 364.359 292.184C365.447 294.04 366.983 295.48 368.967 296.504C370.951 297.464 373.319 297.944 376.071 297.944C378.631 297.944 380.807 297.592 382.599 296.888C384.455 296.12 386.279 294.968 388.071 293.432L397.671 303.416C395.175 306.168 392.103 308.28 388.455 309.752C384.807 311.16 380.487 311.864 375.495 311.864ZM443.713 258.104C447.745 258.104 451.393 258.936 454.657 260.6C457.921 262.2 460.481 264.696 462.337 268.088C464.257 271.48 465.217 275.864 465.217 281.24V311H446.977V284.216C446.977 280.504 446.209 277.816 444.673 276.152C443.201 274.424 441.121 273.56 438.433 273.56C436.513 273.56 434.753 274.008 433.153 274.904C431.553 275.736 430.305 277.048 429.409 278.84C428.513 280.632 428.065 282.968 428.065 285.848V311H409.825V258.968H427.201V273.752L423.841 269.432C425.825 265.656 428.545 262.84 432.001 260.984C435.457 259.064 439.361 258.104 443.713 258.104ZM523.134 273.272H554.142V287.96H523.134V273.272ZM524.478 311H505.47V243.8H558.174V258.488H524.478V311ZM596.757 311V301.304L595.509 298.904V281.048C595.509 278.168 594.613 275.96 592.821 274.424C591.093 272.824 588.309 272.024 584.469 272.024C581.973 272.024 579.445 272.44 576.885 273.272C574.325 274.04 572.149 275.128 570.357 276.536L564.213 264.152C567.157 262.232 570.677 260.76 574.773 259.736C578.933 258.648 583.061 258.104 587.157 258.104C595.605 258.104 602.133 260.056 606.741 263.96C611.413 267.8 613.749 273.848 613.749 282.104V311H596.757ZM581.397 311.864C577.237 311.864 573.717 311.16 570.837 309.752C567.957 308.344 565.749 306.424 564.213 303.992C562.741 301.56 562.005 298.84 562.005 295.832C562.005 292.632 562.805 289.88 564.405 287.576C566.069 285.208 568.597 283.416 571.989 282.2C575.381 280.92 579.765 280.28 585.141 280.28H597.429V289.784H587.637C584.693 289.784 582.613 290.264 581.397 291.224C580.245 292.184 579.669 293.464 579.669 295.064C579.669 296.664 580.277 297.944 581.493 298.904C582.709 299.864 584.373 300.344 586.485 300.344C588.469 300.344 590.261 299.864 591.861 298.904C593.525 297.88 594.741 296.344 595.509 294.296L598.005 301.016C597.045 304.6 595.157 307.32 592.341 309.176C589.589 310.968 585.941 311.864 581.397 311.864ZM652.511 311.864C646.751 311.864 641.599 310.712 637.055 308.408C632.575 306.104 629.055 302.936 626.495 298.904C623.935 294.808 622.655 290.136 622.655 284.888C622.655 279.64 623.935 275 626.495 270.968C629.055 266.936 632.575 263.8 637.055 261.56C641.599 259.256 646.751 258.104 652.511 258.104C658.399 258.104 663.487 259.352 667.775 261.848C672.063 264.344 675.103 267.864 676.895 272.408L662.783 279.608C661.567 277.176 660.063 275.416 658.271 274.328C656.479 273.176 654.527 272.6 652.415 272.6C650.303 272.6 648.383 273.08 646.655 274.04C644.927 275 643.551 276.408 642.527 278.264C641.567 280.056 641.087 282.264 641.087 284.888C641.087 287.576 641.567 289.848 642.527 291.704C643.551 293.56 644.927 294.968 646.655 295.928C648.383 296.888 650.303 297.368 652.415 297.368C654.527 297.368 656.479 296.824 658.271 295.736C660.063 294.584 661.567 292.792 662.783 290.36L676.895 297.56C675.103 302.104 672.063 305.624 667.775 308.12C663.487 310.616 658.399 311.864 652.511 311.864ZM707.838 311.864C701.182 311.864 695.998 310.232 692.286 306.968C688.574 303.64 686.718 298.648 686.718 291.992V247.352H704.958V291.8C704.958 293.656 705.47 295.128 706.494 296.216C707.518 297.24 708.83 297.752 710.43 297.752C712.606 297.752 714.462 297.208 715.998 296.12L720.51 308.888C718.974 309.912 717.086 310.648 714.846 311.096C712.606 311.608 710.27 311.864 707.838 311.864ZM679.134 274.52V260.888H716.862V274.52H679.134Z" fill="white"/>
<path id="Check your EV battery safety" d="M185.36 359.1C184.32 359.1 183.353 358.927 182.46 358.58C181.58 358.22 180.813 357.72 180.16 357.08C179.507 356.44 179 355.693 178.64 354.84C178.28 353.973 178.1 353.027 178.1 352C178.1 350.973 178.28 350.033 178.64 349.18C179 348.313 179.507 347.56 180.16 346.92C180.827 346.28 181.6 345.787 182.48 345.44C183.36 345.08 184.32 344.9 185.36 344.9C186.347 344.9 187.267 345.06 188.12 345.38C188.987 345.7 189.727 346.187 190.34 346.84L189.7 347.5C189.1 346.913 188.433 346.493 187.7 346.24C186.98 345.973 186.213 345.84 185.4 345.84C184.507 345.84 183.673 345.993 182.9 346.3C182.14 346.607 181.473 347.04 180.9 347.6C180.34 348.16 179.9 348.813 179.58 349.56C179.273 350.307 179.12 351.12 179.12 352C179.12 352.88 179.273 353.693 179.58 354.44C179.9 355.187 180.34 355.84 180.9 356.4C181.473 356.96 182.14 357.393 182.9 357.7C183.673 358.007 184.507 358.16 185.4 358.16C186.213 358.16 186.98 358.033 187.7 357.78C188.433 357.513 189.1 357.08 189.7 356.48L190.34 357.14C189.727 357.793 188.987 358.287 188.12 358.62C187.267 358.94 186.347 359.1 185.36 359.1ZM198.536 348.48C199.39 348.48 200.13 348.647 200.756 348.98C201.396 349.3 201.89 349.793 202.236 350.46C202.596 351.113 202.776 351.927 202.776 352.9V359H201.776V352.98C201.776 351.807 201.476 350.913 200.876 350.3C200.29 349.687 199.463 349.38 198.396 349.38C197.583 349.38 196.876 349.547 196.276 349.88C195.676 350.213 195.216 350.68 194.896 351.28C194.59 351.88 194.436 352.6 194.436 353.44V359H193.436V344.16H194.436V351.46L194.256 351.14C194.576 350.313 195.103 349.667 195.836 349.2C196.57 348.72 197.47 348.48 198.536 348.48ZM211.133 359.08C210.08 359.08 209.147 358.853 208.333 358.4C207.533 357.947 206.9 357.32 206.433 356.52C205.98 355.72 205.753 354.807 205.753 353.78C205.753 352.74 205.967 351.827 206.393 351.04C206.833 350.24 207.433 349.613 208.193 349.16C208.953 348.707 209.807 348.48 210.753 348.48C211.7 348.48 212.547 348.7 213.293 349.14C214.053 349.58 214.647 350.2 215.073 351C215.513 351.787 215.733 352.7 215.733 353.74C215.733 353.78 215.727 353.827 215.713 353.88C215.713 353.92 215.713 353.967 215.713 354.02H206.493V353.24H215.173L214.773 353.62C214.787 352.807 214.613 352.08 214.253 351.44C213.907 350.787 213.433 350.28 212.833 349.92C212.233 349.547 211.54 349.36 210.753 349.36C209.98 349.36 209.287 349.547 208.673 349.92C208.073 350.28 207.6 350.787 207.253 351.44C206.907 352.08 206.733 352.813 206.733 353.64V353.82C206.733 354.673 206.92 355.433 207.293 356.1C207.68 356.753 208.207 357.267 208.873 357.64C209.54 358 210.3 358.18 211.153 358.18C211.82 358.18 212.44 358.06 213.013 357.82C213.6 357.58 214.093 357.213 214.493 356.72L215.073 357.38C214.62 357.94 214.047 358.367 213.353 358.66C212.673 358.94 211.933 359.08 211.133 359.08ZM222.967 359.08C221.954 359.08 221.047 358.853 220.247 358.4C219.46 357.947 218.834 357.32 218.367 356.52C217.914 355.72 217.687 354.807 217.687 353.78C217.687 352.74 217.914 351.82 218.367 351.02C218.834 350.22 219.46 349.6 220.247 349.16C221.047 348.707 221.954 348.48 222.967 348.48C223.807 348.48 224.567 348.64 225.247 348.96C225.94 349.28 226.5 349.76 226.927 350.4L226.187 350.94C225.814 350.407 225.347 350.013 224.787 349.76C224.227 349.507 223.62 349.38 222.967 349.38C222.154 349.38 221.42 349.567 220.767 349.94C220.127 350.3 219.62 350.813 219.247 351.48C218.887 352.133 218.707 352.9 218.707 353.78C218.707 354.66 218.887 355.433 219.247 356.1C219.62 356.753 220.127 357.267 220.767 357.64C221.42 358 222.154 358.18 222.967 358.18C223.62 358.18 224.227 358.053 224.787 357.8C225.347 357.547 225.814 357.153 226.187 356.62L226.927 357.16C226.5 357.8 225.94 358.28 225.247 358.6C224.567 358.92 223.807 359.08 222.967 359.08ZM230.505 356.12L230.525 354.86L237.425 348.56H238.705L234.125 352.86L233.525 353.36L230.505 356.12ZM229.745 359V344.16H230.745V359H229.745ZM237.905 359L233.345 353.28L234.025 352.54L239.145 359H237.905ZM246.4 362.96C245.92 362.96 245.466 362.88 245.04 362.72C244.626 362.56 244.273 362.327 243.98 362.02L244.48 361.26C244.746 361.54 245.033 361.747 245.34 361.88C245.66 362.013 246.02 362.08 246.42 362.08C246.9 362.08 247.32 361.947 247.68 361.68C248.053 361.413 248.4 360.927 248.72 360.22L249.44 358.62L249.58 358.44L254 348.56H255.02L249.66 360.42C249.38 361.06 249.073 361.56 248.74 361.92C248.42 362.293 248.066 362.56 247.68 362.72C247.293 362.88 246.866 362.96 246.4 362.96ZM249.42 359.26L244.58 348.56H245.64L250.04 358.38L249.42 359.26ZM260.993 359.08C259.993 359.08 259.1 358.853 258.313 358.4C257.54 357.947 256.92 357.32 256.453 356.52C256 355.72 255.773 354.807 255.773 353.78C255.773 352.74 256 351.827 256.453 351.04C256.92 350.24 257.54 349.613 258.313 349.16C259.1 348.707 259.993 348.48 260.993 348.48C261.993 348.48 262.886 348.707 263.673 349.16C264.46 349.613 265.08 350.24 265.533 351.04C265.986 351.827 266.213 352.74 266.213 353.78C266.213 354.807 265.986 355.72 265.533 356.52C265.08 357.32 264.46 357.947 263.673 358.4C262.886 358.853 261.993 359.08 260.993 359.08ZM260.993 358.18C261.793 358.18 262.513 358 263.153 357.64C263.793 357.267 264.293 356.747 264.653 356.08C265.013 355.413 265.193 354.647 265.193 353.78C265.193 352.9 265.013 352.133 264.653 351.48C264.293 350.813 263.793 350.3 263.153 349.94C262.513 349.567 261.793 349.38 260.993 349.38C260.193 349.38 259.473 349.567 258.833 349.94C258.206 350.3 257.706 350.813 257.333 351.48C256.973 352.133 256.793 352.9 256.793 353.78C256.793 354.647 256.973 355.413 257.333 356.08C257.706 356.747 258.206 357.267 258.833 357.64C259.473 358 260.193 358.18 260.993 358.18ZM273.555 359.08C272.662 359.08 271.889 358.92 271.235 358.6C270.582 358.267 270.075 357.773 269.715 357.12C269.369 356.453 269.195 355.633 269.195 354.66V348.56H270.195V354.58C270.195 355.753 270.495 356.647 271.095 357.26C271.695 357.873 272.542 358.18 273.635 358.18C274.422 358.18 275.102 358.013 275.675 357.68C276.249 357.347 276.689 356.88 276.995 356.28C277.302 355.667 277.455 354.947 277.455 354.12V348.56H278.455V359H277.495V356.1L277.635 356.44C277.329 357.253 276.815 357.9 276.095 358.38C275.389 358.847 274.542 359.08 273.555 359.08ZM282.694 359V348.56H283.654V351.42L283.554 351.1C283.848 350.26 284.341 349.613 285.034 349.16C285.728 348.707 286.594 348.48 287.634 348.48V349.46C287.594 349.46 287.554 349.46 287.514 349.46C287.474 349.447 287.434 349.44 287.394 349.44C286.234 349.44 285.328 349.807 284.674 350.54C284.021 351.26 283.694 352.267 283.694 353.56V359H282.694ZM296.922 351.44H304.502V352.34H296.922V351.44ZM297.042 358.08H305.682V359H296.022V345H305.382V345.92H297.042V358.08ZM313.126 359L306.886 345H308.006L313.966 358.38H313.346L319.326 345H320.386L314.146 359H313.126ZM332.993 359.08C332.073 359.08 331.239 358.867 330.493 358.44C329.759 358.013 329.173 357.4 328.733 356.6C328.306 355.8 328.093 354.86 328.093 353.78C328.093 352.673 328.306 351.727 328.733 350.94C329.173 350.153 329.759 349.547 330.493 349.12C331.239 348.693 332.073 348.48 332.993 348.48C333.979 348.48 334.859 348.707 335.633 349.16C336.419 349.6 337.033 350.22 337.473 351.02C337.926 351.807 338.153 352.727 338.153 353.78C338.153 354.82 337.926 355.74 337.473 356.54C337.033 357.34 336.419 357.967 335.633 358.42C334.859 358.86 333.979 359.08 332.993 359.08ZM327.753 359V344.16H328.753V351.94L328.553 353.76L328.713 355.58V359H327.753ZM332.933 358.18C333.733 358.18 334.453 358 335.093 357.64C335.733 357.267 336.233 356.747 336.593 356.08C336.966 355.413 337.153 354.647 337.153 353.78C337.153 352.9 336.966 352.133 336.593 351.48C336.233 350.813 335.733 350.3 335.093 349.94C334.453 349.567 333.733 349.38 332.933 349.38C332.133 349.38 331.413 349.567 330.773 349.94C330.146 350.3 329.646 350.813 329.273 351.48C328.913 352.133 328.733 352.9 328.733 353.78C328.733 354.647 328.913 355.413 329.273 356.08C329.646 356.747 330.146 357.267 330.773 357.64C331.413 358 332.133 358.18 332.933 358.18ZM347.79 359V356.62L347.75 356.26V352.34C347.75 351.367 347.483 350.627 346.95 350.12C346.43 349.613 345.663 349.36 344.65 349.36C343.93 349.36 343.257 349.487 342.63 349.74C342.017 349.98 341.49 350.293 341.05 350.68L340.55 349.96C341.07 349.493 341.697 349.133 342.43 348.88C343.163 348.613 343.93 348.48 344.73 348.48C346.023 348.48 347.017 348.807 347.71 349.46C348.403 350.113 348.75 351.087 348.75 352.38V359H347.79ZM344.03 359.08C343.257 359.08 342.583 358.96 342.01 358.72C341.45 358.467 341.017 358.113 340.71 357.66C340.417 357.207 340.27 356.687 340.27 356.1C340.27 355.567 340.39 355.087 340.63 354.66C340.883 354.22 341.297 353.867 341.87 353.6C342.443 353.32 343.21 353.18 344.17 353.18H348.01V353.96H344.19C343.11 353.96 342.35 354.16 341.91 354.56C341.483 354.96 341.27 355.46 341.27 356.06C341.27 356.727 341.523 357.26 342.03 357.66C342.537 358.06 343.25 358.26 344.17 358.26C345.05 358.26 345.79 358.06 346.39 357.66C347.003 357.26 347.457 356.68 347.75 355.92L348.03 356.6C347.75 357.36 347.27 357.967 346.59 358.42C345.923 358.86 345.07 359.08 344.03 359.08ZM355.91 359.08C354.99 359.08 354.283 358.827 353.79 358.32C353.31 357.813 353.07 357.12 353.07 356.24V346.28H354.07V356.14C354.07 356.807 354.237 357.32 354.57 357.68C354.903 358.04 355.383 358.22 356.01 358.22C356.663 358.22 357.203 358.027 357.63 357.64L358.05 358.34C357.783 358.593 357.457 358.78 357.07 358.9C356.697 359.02 356.31 359.08 355.91 359.08ZM351.15 349.42V348.56H357.39V349.42H351.15ZM363.605 359.08C362.685 359.08 361.979 358.827 361.485 358.32C361.005 357.813 360.765 357.12 360.765 356.24V346.28H361.765V356.14C361.765 356.807 361.932 357.32 362.265 357.68C362.599 358.04 363.079 358.22 363.705 358.22C364.359 358.22 364.899 358.027 365.325 357.64L365.745 358.34C365.479 358.593 365.152 358.78 364.765 358.9C364.392 359.02 364.005 359.08 363.605 359.08ZM358.845 349.42V348.56H365.085V349.42H358.845ZM372.403 359.08C371.35 359.08 370.416 358.853 369.603 358.4C368.803 357.947 368.17 357.32 367.703 356.52C367.25 355.72 367.023 354.807 367.023 353.78C367.023 352.74 367.236 351.827 367.663 351.04C368.103 350.24 368.703 349.613 369.463 349.16C370.223 348.707 371.076 348.48 372.023 348.48C372.97 348.48 373.816 348.7 374.563 349.14C375.323 349.58 375.916 350.2 376.343 351C376.783 351.787 377.003 352.7 377.003 353.74C377.003 353.78 376.996 353.827 376.983 353.88C376.983 353.92 376.983 353.967 376.983 354.02H367.763V353.24H376.443L376.043 353.62C376.056 352.807 375.883 352.08 375.523 351.44C375.176 350.787 374.703 350.28 374.103 349.92C373.503 349.547 372.81 349.36 372.023 349.36C371.25 349.36 370.556 349.547 369.943 349.92C369.343 350.28 368.87 350.787 368.523 351.44C368.176 352.08 368.003 352.813 368.003 353.64V353.82C368.003 354.673 368.19 355.433 368.563 356.1C368.95 356.753 369.476 357.267 370.143 357.64C370.81 358 371.57 358.18 372.423 358.18C373.09 358.18 373.71 358.06 374.283 357.82C374.87 357.58 375.363 357.213 375.763 356.72L376.343 357.38C375.89 357.94 375.316 358.367 374.623 358.66C373.943 358.94 373.203 359.08 372.403 359.08ZM380.097 359V348.56H381.057V351.42L380.957 351.1C381.25 350.26 381.743 349.613 382.437 349.16C383.13 348.707 383.997 348.48 385.037 348.48V349.46C384.997 349.46 384.957 349.46 384.917 349.46C384.877 349.447 384.837 349.44 384.797 349.44C383.637 349.44 382.73 349.807 382.077 350.54C381.423 351.26 381.097 352.267 381.097 353.56V359H380.097ZM388.021 362.96C387.541 362.96 387.087 362.88 386.661 362.72C386.247 362.56 385.894 362.327 385.601 362.02L386.101 361.26C386.367 361.54 386.654 361.747 386.961 361.88C387.281 362.013 387.641 362.08 388.041 362.08C388.521 362.08 388.941 361.947 389.301 361.68C389.674 361.413 390.021 360.927 390.341 360.22L391.061 358.62L391.201 358.44L395.621 348.56H396.641L391.281 360.42C391.001 361.06 390.694 361.56 390.361 361.92C390.041 362.293 389.687 362.56 389.301 362.72C388.914 362.88 388.487 362.96 388.021 362.96ZM391.041 359.26L386.201 348.56H387.261L391.661 358.38L391.041 359.26ZM406.604 359.08C405.737 359.08 404.924 358.953 404.164 358.7C403.417 358.447 402.837 358.127 402.424 357.74L402.884 356.94C403.284 357.287 403.817 357.587 404.484 357.84C405.15 358.08 405.87 358.2 406.644 358.2C407.737 358.2 408.524 358.02 409.004 357.66C409.484 357.3 409.724 356.827 409.724 356.24C409.724 355.813 409.597 355.48 409.344 355.24C409.104 354.987 408.777 354.793 408.364 354.66C407.95 354.527 407.497 354.42 407.004 354.34C406.51 354.247 406.017 354.147 405.524 354.04C405.03 353.933 404.577 353.78 404.164 353.58C403.75 353.38 403.417 353.107 403.164 352.76C402.924 352.4 402.804 351.927 402.804 351.34C402.804 350.807 402.95 350.327 403.244 349.9C403.537 349.473 403.977 349.133 404.564 348.88C405.15 348.613 405.884 348.48 406.764 348.48C407.417 348.48 408.07 348.573 408.724 348.76C409.39 348.947 409.93 349.193 410.344 349.5L409.884 350.3C409.444 349.967 408.95 349.727 408.404 349.58C407.857 349.433 407.304 349.36 406.744 349.36C405.73 349.36 404.984 349.547 404.504 349.92C404.037 350.293 403.804 350.76 403.804 351.32C403.804 351.76 403.924 352.113 404.164 352.38C404.417 352.633 404.75 352.833 405.164 352.98C405.577 353.113 406.03 353.227 406.524 353.32C407.017 353.4 407.51 353.493 408.004 353.6C408.497 353.707 408.95 353.86 409.364 354.06C409.777 354.247 410.104 354.513 410.344 354.86C410.597 355.193 410.724 355.647 410.724 356.22C410.724 356.793 410.564 357.293 410.244 357.72C409.937 358.147 409.477 358.48 408.864 358.72C408.25 358.96 407.497 359.08 406.604 359.08ZM420.095 359V356.62L420.055 356.26V352.34C420.055 351.367 419.788 350.627 419.255 350.12C418.735 349.613 417.968 349.36 416.955 349.36C416.235 349.36 415.561 349.487 414.935 349.74C414.321 349.98 413.795 350.293 413.355 350.68L412.855 349.96C413.375 349.493 414.001 349.133 414.735 348.88C415.468 348.613 416.235 348.48 417.035 348.48C418.328 348.48 419.321 348.807 420.015 349.46C420.708 350.113 421.055 351.087 421.055 352.38V359H420.095ZM416.335 359.08C415.561 359.08 414.888 358.96 414.315 358.72C413.755 358.467 413.321 358.113 413.015 357.66C412.721 357.207 412.575 356.687 412.575 356.1C412.575 355.567 412.695 355.087 412.935 354.66C413.188 354.22 413.601 353.867 414.175 353.6C414.748 353.32 415.515 353.18 416.475 353.18H420.315V353.96H416.495C415.415 353.96 414.655 354.16 414.215 354.56C413.788 354.96 413.575 355.46 413.575 356.06C413.575 356.727 413.828 357.26 414.335 357.66C414.841 358.06 415.555 358.26 416.475 358.26C417.355 358.26 418.095 358.06 418.695 357.66C419.308 357.26 419.761 356.68 420.055 355.92L420.335 356.6C420.055 357.36 419.575 357.967 418.895 358.42C418.228 358.86 417.375 359.08 416.335 359.08ZM425.375 359V346.96C425.375 346.093 425.621 345.4 426.115 344.88C426.621 344.347 427.341 344.08 428.275 344.08C428.661 344.08 429.041 344.14 429.415 344.26C429.788 344.367 430.095 344.533 430.335 344.76L429.935 345.52C429.735 345.32 429.495 345.173 429.215 345.08C428.935 344.987 428.635 344.94 428.315 344.94C427.675 344.94 427.188 345.12 426.855 345.48C426.521 345.827 426.355 346.347 426.355 347.04V348.8L426.375 349.28V359H425.375ZM423.455 349.42V348.56H429.695V349.42H423.455ZM435.801 359.08C434.748 359.08 433.815 358.853 433.001 358.4C432.201 357.947 431.568 357.32 431.101 356.52C430.648 355.72 430.421 354.807 430.421 353.78C430.421 352.74 430.635 351.827 431.061 351.04C431.501 350.24 432.101 349.613 432.861 349.16C433.621 348.707 434.475 348.48 435.421 348.48C436.368 348.48 437.215 348.7 437.961 349.14C438.721 349.58 439.315 350.2 439.741 351C440.181 351.787 440.401 352.7 440.401 353.74C440.401 353.78 440.395 353.827 440.381 353.88C440.381 353.92 440.381 353.967 440.381 354.02H431.161V353.24H439.841L439.441 353.62C439.455 352.807 439.281 352.08 438.921 351.44C438.575 350.787 438.101 350.28 437.501 349.92C436.901 349.547 436.208 349.36 435.421 349.36C434.648 349.36 433.955 349.547 433.341 349.92C432.741 350.28 432.268 350.787 431.921 351.44C431.575 352.08 431.401 352.813 431.401 353.64V353.82C431.401 354.673 431.588 355.433 431.961 356.1C432.348 356.753 432.875 357.267 433.541 357.64C434.208 358 434.968 358.18 435.821 358.18C436.488 358.18 437.108 358.06 437.681 357.82C438.268 357.58 438.761 357.213 439.161 356.72L439.741 357.38C439.288 357.94 438.715 358.367 438.021 358.66C437.341 358.94 436.601 359.08 435.801 359.08ZM446.535 359.08C445.615 359.08 444.908 358.827 444.415 358.32C443.935 357.813 443.695 357.12 443.695 356.24V346.28H444.695V356.14C444.695 356.807 444.862 357.32 445.195 357.68C445.528 358.04 446.008 358.22 446.635 358.22C447.288 358.22 447.828 358.027 448.255 357.64L448.675 358.34C448.408 358.593 448.082 358.78 447.695 358.9C447.322 359.02 446.935 359.08 446.535 359.08ZM441.775 349.42V348.56H448.015V349.42H441.775ZM451.028 362.96C450.548 362.96 450.095 362.88 449.668 362.72C449.255 362.56 448.902 362.327 448.608 362.02L449.108 361.26C449.375 361.54 449.662 361.747 449.968 361.88C450.288 362.013 450.648 362.08 451.048 362.08C451.528 362.08 451.948 361.947 452.308 361.68C452.682 361.413 453.028 360.927 453.348 360.22L454.068 358.62L454.208 358.44L458.628 348.56H459.648L454.288 360.42C454.008 361.06 453.702 361.56 453.368 361.92C453.048 362.293 452.695 362.56 452.308 362.72C451.922 362.88 451.495 362.96 451.028 362.96ZM454.048 359.26L449.208 348.56H450.268L454.668 358.38L454.048 359.26Z" fill="white"/>
<g id="Group 6">
<rect id="Rectangle 9" x="166" y="422" width="200" height="50" rx="10" fill="#0B85A7"/>
<path id="Start Analyze" d="M201.26 454.24C200.14 454.24 199.067 454.093 198.04 453.8C197.013 453.493 196.187 453.1 195.56 452.62L196.66 450.18C197.26 450.607 197.967 450.96 198.78 451.24C199.607 451.507 200.44 451.64 201.28 451.64C201.92 451.64 202.433 451.58 202.82 451.46C203.22 451.327 203.513 451.147 203.7 450.92C203.887 450.693 203.98 450.433 203.98 450.14C203.98 449.767 203.833 449.473 203.54 449.26C203.247 449.033 202.86 448.853 202.38 448.72C201.9 448.573 201.367 448.44 200.78 448.32C200.207 448.187 199.627 448.027 199.04 447.84C198.467 447.653 197.94 447.413 197.46 447.12C196.98 446.827 196.587 446.44 196.28 445.96C195.987 445.48 195.84 444.867 195.84 444.12C195.84 443.32 196.053 442.593 196.48 441.94C196.92 441.273 197.573 440.747 198.44 440.36C199.32 439.96 200.42 439.76 201.74 439.76C202.62 439.76 203.487 439.867 204.34 440.08C205.193 440.28 205.947 440.587 206.6 441L205.6 443.46C204.947 443.087 204.293 442.813 203.64 442.64C202.987 442.453 202.347 442.36 201.72 442.36C201.093 442.36 200.58 442.433 200.18 442.58C199.78 442.727 199.493 442.92 199.32 443.16C199.147 443.387 199.06 443.653 199.06 443.96C199.06 444.32 199.207 444.613 199.5 444.84C199.793 445.053 200.18 445.227 200.66 445.36C201.14 445.493 201.667 445.627 202.24 445.76C202.827 445.893 203.407 446.047 203.98 446.22C204.567 446.393 205.1 446.627 205.58 446.92C206.06 447.213 206.447 447.6 206.74 448.08C207.047 448.56 207.2 449.167 207.2 449.9C207.2 450.687 206.98 451.407 206.54 452.06C206.1 452.713 205.44 453.24 204.56 453.64C203.693 454.04 202.593 454.24 201.26 454.24ZM213.594 454.16C212.327 454.16 211.341 453.84 210.634 453.2C209.927 452.547 209.574 451.58 209.574 450.3V440.86H212.694V450.26C212.694 450.713 212.814 451.067 213.054 451.32C213.294 451.56 213.621 451.68 214.034 451.68C214.527 451.68 214.947 451.547 215.294 451.28L216.134 453.48C215.814 453.707 215.427 453.88 214.974 454C214.534 454.107 214.074 454.16 213.594 454.16ZM207.914 445.88V443.48H215.374V445.88H207.914ZM224.485 454V451.9L224.285 451.44V447.68C224.285 447.013 224.079 446.493 223.665 446.12C223.265 445.747 222.645 445.56 221.805 445.56C221.232 445.56 220.665 445.653 220.105 445.84C219.559 446.013 219.092 446.253 218.705 446.56L217.585 444.38C218.172 443.967 218.879 443.647 219.705 443.42C220.532 443.193 221.372 443.08 222.225 443.08C223.865 443.08 225.139 443.467 226.045 444.24C226.952 445.013 227.405 446.22 227.405 447.86V454H224.485ZM221.205 454.16C220.365 454.16 219.645 454.02 219.045 453.74C218.445 453.447 217.985 453.053 217.665 452.56C217.345 452.067 217.185 451.513 217.185 450.9C217.185 450.26 217.339 449.7 217.645 449.22C217.965 448.74 218.465 448.367 219.145 448.1C219.825 447.82 220.712 447.68 221.805 447.68H224.665V449.5H222.145C221.412 449.5 220.905 449.62 220.625 449.86C220.359 450.1 220.225 450.4 220.225 450.76C220.225 451.16 220.379 451.48 220.685 451.72C221.005 451.947 221.439 452.06 221.985 452.06C222.505 452.06 222.972 451.94 223.385 451.7C223.799 451.447 224.099 451.08 224.285 450.6L224.765 452.04C224.539 452.733 224.125 453.26 223.525 453.62C222.925 453.98 222.152 454.16 221.205 454.16ZM230.229 454V443.24H233.209V446.28L232.789 445.4C233.109 444.64 233.622 444.067 234.329 443.68C235.036 443.28 235.896 443.08 236.909 443.08V445.96C236.776 445.947 236.656 445.94 236.549 445.94C236.442 445.927 236.329 445.92 236.209 445.92C235.356 445.92 234.662 446.167 234.129 446.66C233.609 447.14 233.349 447.893 233.349 448.92V454H230.229ZM243.535 454.16C242.269 454.16 241.282 453.84 240.575 453.2C239.869 452.547 239.515 451.58 239.515 450.3V440.86H242.635V450.26C242.635 450.713 242.755 451.067 242.995 451.32C243.235 451.56 243.562 451.68 243.975 451.68C244.469 451.68 244.889 451.547 245.235 451.28L246.075 453.48C245.755 453.707 245.369 453.88 244.915 454C244.475 454.107 244.015 454.16 243.535 454.16ZM237.855 445.88V443.48H245.315V445.88H237.855ZM251.871 454L258.111 440H261.311L267.571 454H264.171L259.051 441.64H260.331L255.191 454H251.871ZM254.991 451L255.851 448.54H263.051L263.931 451H254.991ZM275.343 443.08C276.197 443.08 276.957 443.253 277.623 443.6C278.303 443.933 278.837 444.453 279.223 445.16C279.61 445.853 279.803 446.747 279.803 447.84V454H276.683V448.32C276.683 447.453 276.49 446.813 276.103 446.4C275.73 445.987 275.197 445.78 274.503 445.78C274.01 445.78 273.563 445.887 273.163 446.1C272.777 446.3 272.47 446.613 272.243 447.04C272.03 447.467 271.923 448.013 271.923 448.68V454H268.803V443.24H271.783V446.22L271.223 445.32C271.61 444.6 272.163 444.047 272.883 443.66C273.603 443.273 274.423 443.08 275.343 443.08ZM289.231 454V451.9L289.031 451.44V447.68C289.031 447.013 288.825 446.493 288.411 446.12C288.011 445.747 287.391 445.56 286.551 445.56C285.978 445.56 285.411 445.653 284.851 445.84C284.305 446.013 283.838 446.253 283.451 446.56L282.331 444.38C282.918 443.967 283.625 443.647 284.451 443.42C285.278 443.193 286.118 443.08 286.971 443.08C288.611 443.08 289.885 443.467 290.791 444.24C291.698 445.013 292.151 446.22 292.151 447.86V454H289.231ZM285.951 454.16C285.111 454.16 284.391 454.02 283.791 453.74C283.191 453.447 282.731 453.053 282.411 452.56C282.091 452.067 281.931 451.513 281.931 450.9C281.931 450.26 282.085 449.7 282.391 449.22C282.711 448.74 283.211 448.367 283.891 448.1C284.571 447.82 285.458 447.68 286.551 447.68H289.411V449.5H286.891C286.158 449.5 285.651 449.62 285.371 449.86C285.105 450.1 284.971 450.4 284.971 450.76C284.971 451.16 285.125 451.48 285.431 451.72C285.751 451.947 286.185 452.06 286.731 452.06C287.251 452.06 287.718 451.94 288.131 451.7C288.545 451.447 288.845 451.08 289.031 450.6L289.511 452.04C289.285 452.733 288.871 453.26 288.271 453.62C287.671 453.98 286.898 454.16 285.951 454.16ZM294.975 454V439.16H298.095V454H294.975ZM302.351 458.04C301.791 458.04 301.237 457.953 300.691 457.78C300.144 457.607 299.697 457.367 299.351 457.06L300.491 454.84C300.731 455.053 301.004 455.22 301.311 455.34C301.631 455.46 301.944 455.52 302.251 455.52C302.691 455.52 303.037 455.413 303.291 455.2C303.557 455 303.797 454.66 304.011 454.18L304.571 452.86L304.811 452.52L308.671 443.24H311.671L306.811 454.66C306.464 455.527 306.064 456.207 305.611 456.7C305.171 457.193 304.677 457.54 304.131 457.74C303.597 457.94 303.004 458.04 302.351 458.04ZM304.191 454.42L299.391 443.24H302.611L306.331 452.24L304.191 454.42ZM312.009 454V452.12L318.369 444.6L318.909 445.64H312.149V443.24H321.429V445.12L315.069 452.64L314.509 451.6H321.609V454H312.009ZM328.811 454.16C327.585 454.16 326.505 453.92 325.571 453.44C324.651 452.96 323.938 452.307 323.431 451.48C322.925 450.64 322.671 449.687 322.671 448.62C322.671 447.54 322.918 446.587 323.411 445.76C323.918 444.92 324.605 444.267 325.471 443.8C326.338 443.32 327.318 443.08 328.411 443.08C329.465 443.08 330.411 443.307 331.251 443.76C332.105 444.2 332.778 444.84 333.271 445.68C333.765 446.507 334.011 447.5 334.011 448.66C334.011 448.78 334.005 448.92 333.991 449.08C333.978 449.227 333.965 449.367 333.951 449.5H325.211V447.68H332.311L331.111 448.22C331.111 447.66 330.998 447.173 330.771 446.76C330.545 446.347 330.231 446.027 329.831 445.8C329.431 445.56 328.965 445.44 328.431 445.44C327.898 445.44 327.425 445.56 327.011 445.8C326.611 446.027 326.298 446.353 326.071 446.78C325.845 447.193 325.731 447.687 325.731 448.26V448.74C325.731 449.327 325.858 449.847 326.111 450.3C326.378 450.74 326.745 451.08 327.211 451.32C327.691 451.547 328.251 451.66 328.891 451.66C329.465 451.66 329.965 451.573 330.391 451.4C330.831 451.227 331.231 450.967 331.591 450.62L333.251 452.42C332.758 452.98 332.138 453.413 331.391 453.72C330.645 454.013 329.785 454.16 328.811 454.16Z" fill="white"/>
</g>
</g>
</g>
<defs>
<filter id="filter0_d_54_979" x="162" y="242.456" width="562.51" height="237.544" filterUnits="userSpaceOnUse" color-interpolation-filters="sRGB">
<feFlood flood-opacity="0" result="BackgroundImageFix"/>
<feColorMatrix in="SourceAlpha" type="matrix" values="0 0 0 0 0 0 0 0 0 0 0 0 0 0 0 0 0 0 127 0" result="hardAlpha"/>
<feOffset dy="4"/>
<feGaussianBlur stdDeviation="2"/>
<feComposite in2="hardAlpha" operator="out"/>
<feColorMatrix type="matrix" values="0 0 0 0 0 0 0 0 0 0 0 0 0 0 0 0 0 0 0.25 0"/>
<feBlend mode="normal" in2="BackgroundImageFix" result="effect1_dropShadow_54_979"/>
<feBlend mode="normal" in="SourceGraphic" in2="effect1_dropShadow_54_979" result="shape"/>
</filter>
</defs>
</svg>
